<mxfile host="app.diagrams.net" modified="2023-10-30T13:22:13.134Z" agent="Mozilla/5.0 (Windows NT 10.0; Win64; x64) AppleWebKit/537.36 (KHTML, like Gecko) Chrome/118.0.0.0 Safari/537.36" etag="NYky8cBCnJJbOzv43Hi4" version="22.0.0" type="device">
  <diagram name="Pagina-1" id="YItKlDlyVuwNpQAgmhq9">
    <mxGraphModel dx="736" dy="559" grid="1" gridSize="10" guides="1" tooltips="1" connect="1" arrows="1" fold="1" page="1" pageScale="1" pageWidth="827" pageHeight="1169" math="0" shadow="0">
      <root>
        <mxCell id="0" />
        <mxCell id="1" parent="0" />
        <mxCell id="r6z989G21H8uqTt8hB7O-4" value="act GameOver" style="shape=umlFrame;whiteSpace=wrap;html=1;pointerEvents=0;width=90;height=30;" vertex="1" parent="1">
          <mxGeometry x="30" y="30" width="430" height="470" as="geometry" />
        </mxCell>
        <mxCell id="r6z989G21H8uqTt8hB7O-9" style="edgeStyle=orthogonalEdgeStyle;rounded=0;orthogonalLoop=1;jettySize=auto;html=1;entryX=0.5;entryY=0;entryDx=0;entryDy=0;" edge="1" parent="1" source="r6z989G21H8uqTt8hB7O-6" target="r6z989G21H8uqTt8hB7O-8">
          <mxGeometry relative="1" as="geometry" />
        </mxCell>
        <mxCell id="r6z989G21H8uqTt8hB7O-6" value="Play Game Over sound" style="rounded=1;whiteSpace=wrap;html=1;" vertex="1" parent="1">
          <mxGeometry x="90" y="190" width="120" height="60" as="geometry" />
        </mxCell>
        <mxCell id="r6z989G21H8uqTt8hB7O-11" style="edgeStyle=orthogonalEdgeStyle;rounded=0;orthogonalLoop=1;jettySize=auto;html=1;entryX=0.5;entryY=0;entryDx=0;entryDy=0;" edge="1" parent="1" source="r6z989G21H8uqTt8hB7O-8" target="r6z989G21H8uqTt8hB7O-10">
          <mxGeometry relative="1" as="geometry" />
        </mxCell>
        <mxCell id="r6z989G21H8uqTt8hB7O-8" value="Disable shooting and getting hit" style="rounded=1;whiteSpace=wrap;html=1;" vertex="1" parent="1">
          <mxGeometry x="90" y="300" width="120" height="60" as="geometry" />
        </mxCell>
        <mxCell id="r6z989G21H8uqTt8hB7O-13" style="edgeStyle=orthogonalEdgeStyle;rounded=0;orthogonalLoop=1;jettySize=auto;html=1;entryX=0;entryY=0.5;entryDx=0;entryDy=0;" edge="1" parent="1" source="r6z989G21H8uqTt8hB7O-10" target="r6z989G21H8uqTt8hB7O-12">
          <mxGeometry relative="1" as="geometry" />
        </mxCell>
        <mxCell id="r6z989G21H8uqTt8hB7O-10" value="Send Game Over Message To Leader" style="rounded=1;whiteSpace=wrap;html=1;" vertex="1" parent="1">
          <mxGeometry x="90" y="420" width="120" height="60" as="geometry" />
        </mxCell>
        <mxCell id="r6z989G21H8uqTt8hB7O-15" style="edgeStyle=orthogonalEdgeStyle;rounded=0;orthogonalLoop=1;jettySize=auto;html=1;entryX=0.5;entryY=1;entryDx=0;entryDy=0;" edge="1" parent="1" source="r6z989G21H8uqTt8hB7O-12">
          <mxGeometry relative="1" as="geometry">
            <mxPoint x="340" y="360" as="targetPoint" />
          </mxGeometry>
        </mxCell>
        <mxCell id="r6z989G21H8uqTt8hB7O-12" value="Display &quot;Game Over&quot;" style="rounded=1;whiteSpace=wrap;html=1;" vertex="1" parent="1">
          <mxGeometry x="280" y="420" width="120" height="60" as="geometry" />
        </mxCell>
        <mxCell id="r6z989G21H8uqTt8hB7O-30" style="edgeStyle=orthogonalEdgeStyle;rounded=0;orthogonalLoop=1;jettySize=auto;html=1;entryX=0.5;entryY=0;entryDx=0;entryDy=0;" edge="1" parent="1" source="r6z989G21H8uqTt8hB7O-27" target="r6z989G21H8uqTt8hB7O-6">
          <mxGeometry relative="1" as="geometry" />
        </mxCell>
        <mxCell id="r6z989G21H8uqTt8hB7O-27" value="wait for UC041_GameState" style="html=1;shape=mxgraph.sysml.accEvent;strokeWidth=2;whiteSpace=wrap;align=center;" vertex="1" parent="1">
          <mxGeometry x="80" y="90" width="140" height="60" as="geometry" />
        </mxCell>
        <mxCell id="r6z989G21H8uqTt8hB7O-32" value="wait for end of game Time" style="html=1;shape=mxgraph.sysml.accEvent;strokeWidth=2;whiteSpace=wrap;align=center;" vertex="1" parent="1">
          <mxGeometry x="280" y="300" width="110" height="60" as="geometry" />
        </mxCell>
        <mxCell id="r6z989G21H8uqTt8hB7O-33" value="go to UC2_SendPostGameData" style="html=1;shape=mxgraph.sysml.sendSigAct;strokeWidth=2;whiteSpace=wrap;align=center;" vertex="1" parent="1">
          <mxGeometry x="260" y="180" width="180" height="60" as="geometry" />
        </mxCell>
        <mxCell id="r6z989G21H8uqTt8hB7O-34" style="edgeStyle=orthogonalEdgeStyle;rounded=0;orthogonalLoop=1;jettySize=auto;html=1;entryX=0.418;entryY=1.02;entryDx=0;entryDy=0;entryPerimeter=0;" edge="1" parent="1" source="r6z989G21H8uqTt8hB7O-32" target="r6z989G21H8uqTt8hB7O-33">
          <mxGeometry relative="1" as="geometry" />
        </mxCell>
        <mxCell id="r6z989G21H8uqTt8hB7O-35" style="edgeStyle=orthogonalEdgeStyle;rounded=0;orthogonalLoop=1;jettySize=auto;html=1;entryX=1;entryY=0.5;entryDx=0;entryDy=0;entryPerimeter=0;exitX=0.389;exitY=0;exitDx=0;exitDy=0;exitPerimeter=0;" edge="1" parent="1" source="r6z989G21H8uqTt8hB7O-33" target="r6z989G21H8uqTt8hB7O-27">
          <mxGeometry relative="1" as="geometry" />
        </mxCell>
      </root>
    </mxGraphModel>
  </diagram>
</mxfile>
